<svg width="24" height="24" viewBox="0 0 24 24" fill="none" xmlns="http://www.w3.org/2000/svg">
<path d="M10 19C10 19.3956 9.8827 19.7822 9.66294 20.1111C9.44318 20.44 9.13082 20.6964 8.76537 20.8478C8.39992 20.9991 7.99778 21.0387 7.60982 20.9616C7.22186 20.8844 6.86549 20.6939 6.58579 20.4142C6.30608 20.1345 6.1156 19.7781 6.03843 19.3902C5.96126 19.0022 6.00087 18.6001 6.15224 18.2346C6.30362 17.8692 6.55996 17.5568 6.88886 17.3371C7.21776 17.1173 7.60444 17 8 17C8.53043 17 9.03914 17.2107 9.41421 17.5858C9.78929 17.9609 10 18.4696 10 19ZM8 10C7.60444 10 7.21776 10.1173 6.88886 10.3371C6.55996 10.5568 6.30362 10.8692 6.15224 11.2346C6.00087 11.6001 5.96126 12.0022 6.03843 12.3902C6.1156 12.7781 6.30608 13.1345 6.58579 13.4142C6.86549 13.6939 7.22186 13.8844 7.60982 13.9616C7.99778 14.0387 8.39992 13.9991 8.76537 13.8478C9.13082 13.6964 9.44318 13.44 9.66294 13.1111C9.8827 12.7822 10 12.3956 10 12C10 11.4696 9.78929 10.9609 9.41421 10.5858C9.03914 10.2107 8.53043 10 8 10ZM8 3C7.60444 3 7.21776 3.1173 6.88886 3.33706C6.55996 3.55682 6.30362 3.86918 6.15224 4.23463C6.00087 4.60009 5.96126 5.00222 6.03843 5.39018C6.1156 5.77814 6.30608 6.13451 6.58579 6.41421C6.86549 6.69392 7.22186 6.8844 7.60982 6.96157C7.99778 7.03874 8.39992 6.99914 8.76537 6.84776C9.13082 6.69638 9.44318 6.44004 9.66294 6.11114C9.8827 5.78224 10 5.39556 10 5C10 4.46957 9.78929 3.96086 9.41421 3.58579C9.03914 3.21071 8.53043 3 8 3ZM16 17C15.6044 17 15.2178 17.1173 14.8889 17.3371C14.56 17.5568 14.3036 17.8692 14.1522 18.2346C14.0009 18.6001 13.9613 19.0022 14.0384 19.3902C14.1156 19.7781 14.3061 20.1345 14.5858 20.4142C14.8655 20.6939 15.2219 20.8844 15.6098 20.9616C15.9978 21.0387 16.3999 20.9991 16.7654 20.8478C17.1308 20.6964 17.4432 20.44 17.6629 20.1111C17.8827 19.7822 18 19.3956 18 19C18 18.4696 17.7893 17.9609 17.4142 17.5858C17.0391 17.2107 16.5304 17 16 17ZM16 10C15.6044 10 15.2178 10.1173 14.8889 10.3371C14.56 10.5568 14.3036 10.8692 14.1522 11.2346C14.0009 11.6001 13.9613 12.0022 14.0384 12.3902C14.1156 12.7781 14.3061 13.1345 14.5858 13.4142C14.8655 13.6939 15.2219 13.8844 15.6098 13.9616C15.9978 14.0387 16.3999 13.9991 16.7654 13.8478C17.1308 13.6964 17.4432 13.44 17.6629 13.1111C17.8827 12.7822 18 12.3956 18 12C18 11.4696 17.7893 10.9609 17.4142 10.5858C17.0391 10.2107 16.5304 10 16 10ZM16 3C15.6044 3 15.2178 3.1173 14.8889 3.33706C14.56 3.55682 14.3036 3.86918 14.1522 4.23463C14.0009 4.60009 13.9613 5.00222 14.0384 5.39018C14.1156 5.77814 14.3061 6.13451 14.5858 6.41421C14.8655 6.69392 15.2219 6.8844 15.6098 6.96157C15.9978 7.03874 16.3999 6.99914 16.7654 6.84776C17.1308 6.69638 17.4432 6.44004 17.6629 6.11114C17.8827 5.78224 18 5.39556 18 5C18 4.46957 17.7893 3.96086 17.4142 3.58579C17.0391 3.21071 16.5304 3 16 3Z" fill="#333333"/>
</svg>
